<svg width="20" height="20" viewBox="0 0 20 20" fill="none" xmlns="http://www.w3.org/2000/svg">
<path d="M19.9992 10.0616C19.9992 4.50426 15.5223 0 9.99958 0C4.47685 0 0 4.50426 0 10.0616C0 15.0824 3.65682 19.2445 8.43702 19.9992V12.9694H5.89858V10.0608H8.43702V7.84472C8.43702 5.3226 9.93041 3.9299 12.2138 3.9299C13.3081 3.9299 14.4523 4.12611 14.4523 4.12611V6.6021H13.1922C11.9505 6.6021 11.563 7.37769 11.563 8.1734V10.0616H14.3364L13.8931 12.9703H11.563V20C16.3432 19.2454 20 15.0832 20 10.0616H19.9992Z" fill="#090F21"/>
</svg>
