<svg width="257" height="200" viewBox="0 0 257 200" fill="none" xmlns="http://www.w3.org/2000/svg">
<path d="M229.93 195.7H14.9595V48.0128L234.835 49.9656L234.819 190.408C234.819 193.33 232.629 195.698 229.93 195.698V195.7Z" fill="white"/>
<path d="M229.929 196.092H14.9586C14.7413 196.092 14.5667 195.915 14.5667 195.7V48.0125C14.5667 47.9074 14.6076 47.8076 14.6825 47.7328C14.7573 47.6597 14.866 47.6259 14.9622 47.6187L234.838 49.5716C235.054 49.5733 235.226 49.748 235.226 49.9635L235.21 190.406C235.21 193.54 232.841 196.09 229.927 196.09L229.929 196.092ZM15.3506 195.306H229.929C232.409 195.306 234.426 193.109 234.426 190.408L234.442 50.3538L15.3524 48.4081V195.306H15.3506Z" fill="#2563EB"/>
<path d="M128.551 70.6214L2.40837 69.9907C0.644415 69.9818 -0.515514 68.1501 0.229266 66.5519L37.299 16.0244C38.115 14.9108 39.4193 14.2623 40.8002 14.289C55.6512 14.5812 142.844 12.158 142.844 12.158L128.552 70.6196L128.551 70.6214Z" fill="#2563EB"/>
<path d="M62.4399 129.732H47.5069C46.6 129.732 45.8623 128.994 45.8623 128.087V105.236C45.8623 104.329 46.6 103.592 47.5069 103.592H62.4399C63.3468 103.592 64.0845 104.329 64.0845 105.236V128.087C64.0845 128.994 63.3468 129.732 62.4399 129.732ZM47.5069 104.377C47.0329 104.377 46.6481 104.762 46.6481 105.236V128.087C46.6481 128.561 47.0329 128.946 47.5069 128.946H62.4399C62.9138 128.946 63.2987 128.561 63.2987 128.087V105.236C63.2987 104.762 62.9138 104.377 62.4399 104.377H47.5069Z" fill="#2563EB"/>
<path d="M41.8586 129.734H27.1786C26.2021 129.734 25.4075 128.939 25.4075 127.963V105.363C25.4075 104.386 26.2021 103.592 27.1786 103.592H41.8586C42.835 103.592 43.6296 104.386 43.6296 105.363V127.963C43.6296 128.939 42.835 129.734 41.8586 129.734ZM27.1786 104.379C26.6351 104.379 26.1932 104.821 26.1932 105.365V127.964C26.1932 128.508 26.6351 128.95 27.1786 128.95H41.8586C42.402 128.95 42.8439 128.508 42.8439 127.964V105.365C42.8439 104.821 42.402 104.379 41.8586 104.379H27.1786Z" fill="#2563EB"/>
<path d="M62.7962 157.905H47.1487C46.4396 157.905 45.8623 157.328 45.8623 156.619V133.051C45.8623 132.342 46.4396 131.765 47.1487 131.765H62.7962C63.5054 131.765 64.0827 132.342 64.0827 133.051V156.619C64.0827 157.328 63.5054 157.905 62.7962 157.905ZM47.1505 132.55C46.8744 132.55 46.6499 132.775 46.6499 133.051V156.619C46.6499 156.895 46.8744 157.119 47.1505 157.119H62.798C63.0742 157.119 63.2987 156.895 63.2987 156.619V133.051C63.2987 132.775 63.0742 132.55 62.798 132.55H47.1505Z" fill="#2563EB"/>
<path d="M41.8236 157.904H27.2148C26.2188 157.904 25.4099 157.094 25.4099 156.1V133.571C25.4099 132.575 26.2206 131.766 27.2148 131.766H41.8236C42.8196 131.766 43.6285 132.577 43.6285 133.571V156.1C43.6285 157.096 42.8178 157.904 41.8236 157.904ZM27.2148 132.55C26.6518 132.55 26.1939 133.008 26.1939 133.571V156.1C26.1939 156.663 26.6518 157.121 27.2148 157.121H41.8236C42.3866 157.121 42.8445 156.663 42.8445 156.1V133.571C42.8445 133.008 42.3866 132.55 41.8236 132.55H27.2148Z" fill="#2563EB"/>
<path d="M78.2868 191.636L77.4102 51.8171L162.228 13.958L243.257 52.373L241.647 193.826C241.597 195.74 239.945 197.261 237.935 197.245L82.7822 195.955C80.2913 195.934 78.285 194.006 78.285 191.636H78.2868Z" fill="white"/>
<path d="M237.97 197.637C237.958 197.637 237.947 197.637 237.934 197.637L82.7814 196.347C80.0873 196.323 77.8957 194.212 77.894 191.637L77.0173 51.8183C77.0173 51.6633 77.1082 51.5208 77.2507 51.4566L162.068 13.5976C162.173 13.5513 162.293 13.553 162.396 13.6012L243.426 52.0161C243.565 52.082 243.652 52.2228 243.65 52.376L242.04 193.829C241.986 195.937 240.162 197.637 237.968 197.637H237.97ZM77.8066 52.0714L78.6815 191.634C78.6815 193.783 80.5239 195.545 82.7885 195.563L237.941 196.853C237.95 196.853 237.961 196.853 237.97 196.853C239.743 196.853 241.215 195.497 241.257 193.817L242.865 52.6219L162.225 14.3923L77.8066 52.0731V52.0714Z" fill="#2563EB"/>
<path d="M228.943 130.541H214.01C213.103 130.541 212.365 129.803 212.365 128.896V106.082C212.365 105.175 213.103 104.438 214.01 104.438H228.943C229.85 104.438 230.587 105.175 230.587 106.082V128.896C230.587 129.803 229.85 130.541 228.943 130.541ZM214.01 105.225C213.536 105.225 213.151 105.61 213.151 106.084V128.898C213.151 129.372 213.536 129.757 214.01 129.757H228.943C229.417 129.757 229.802 129.372 229.802 128.898V106.084C229.802 105.61 229.417 105.225 228.943 105.225H214.01Z" fill="#2563EB"/>
<path d="M208.366 130.541H193.686C192.71 130.541 191.915 129.746 191.915 128.769V106.209C191.915 105.232 192.71 104.438 193.686 104.438H208.366C209.343 104.438 210.137 105.232 210.137 106.209V128.769C210.137 129.746 209.343 130.541 208.366 130.541ZM193.686 105.225C193.143 105.225 192.701 105.667 192.701 106.21V128.771C192.701 129.315 193.143 129.757 193.686 129.757H208.366C208.91 129.757 209.352 129.315 209.352 128.771V106.21C209.352 105.667 208.91 105.225 208.366 105.225H193.686Z" fill="#2563EB"/>
<path d="M229.299 158.669H213.652C212.943 158.669 212.365 158.092 212.365 157.383V133.855C212.365 133.145 212.943 132.568 213.652 132.568H229.299C230.008 132.568 230.586 133.145 230.586 133.855V157.383C230.586 158.092 230.008 158.669 229.299 158.669ZM213.653 133.354C213.377 133.354 213.153 133.578 213.153 133.855V157.383C213.153 157.659 213.377 157.883 213.653 157.883H229.301C229.577 157.883 229.802 157.659 229.802 157.383V133.855C229.802 133.578 229.577 133.354 229.301 133.354H213.653Z" fill="#2563EB"/>
<path d="M208.331 158.67H193.722C192.726 158.67 191.917 157.859 191.917 156.865V134.376C191.917 133.38 192.728 132.571 193.722 132.571H208.331C209.327 132.571 210.136 133.381 210.136 134.376V156.865C210.136 157.861 209.325 158.67 208.331 158.67ZM193.721 133.355C193.158 133.355 192.7 133.813 192.7 134.376V156.865C192.7 157.428 193.158 157.886 193.721 157.886H208.329C208.892 157.886 209.35 157.428 209.35 156.865V134.376C209.35 133.813 208.892 133.355 208.329 133.355H193.721Z" fill="#2563EB"/>
<path d="M177.871 57.6042H162.938C162.031 57.6042 161.293 56.8665 161.293 55.9596V37.9762C161.293 37.0693 162.031 36.3316 162.938 36.3316H177.871C178.778 36.3316 179.515 37.0693 179.515 37.9762V55.9596C179.515 56.8665 178.778 57.6042 177.871 57.6042ZM162.94 37.1192C162.466 37.1192 162.081 37.504 162.081 37.978V55.9614C162.081 56.4353 162.466 56.8202 162.94 56.8202H177.873C178.347 56.8202 178.731 56.4353 178.731 55.9614V37.978C178.731 37.504 178.347 37.1192 177.873 37.1192H162.94Z" fill="#2563EB"/>
<path d="M157.289 57.6042H142.609C141.633 57.6042 140.838 56.8095 140.838 55.8331V38.1027C140.838 37.1263 141.633 36.3316 142.609 36.3316H157.289C158.266 36.3316 159.06 37.1263 159.06 38.1027V55.8331C159.06 56.8095 158.266 57.6042 157.289 57.6042ZM142.609 37.1192C142.066 37.1192 141.624 37.561 141.624 38.1045V55.8349C141.624 56.3783 142.066 56.8202 142.609 56.8202H157.289C157.833 56.8202 158.275 56.3783 158.275 55.8349V38.1045C158.275 37.561 157.833 37.1192 157.289 37.1192H142.609Z" fill="#2563EB"/>
<path d="M178.227 80.367H162.58C161.871 80.367 161.293 79.7897 161.293 79.0806V60.3827C161.293 59.6735 161.871 59.0962 162.58 59.0962H178.227C178.936 59.0962 179.514 59.6735 179.514 60.3827V79.0806C179.514 79.7897 178.936 80.367 178.227 80.367ZM162.58 59.882C162.303 59.882 162.079 60.1065 162.079 60.3827V79.0806C162.079 79.3568 162.303 79.5813 162.58 79.5813H178.227C178.503 79.5813 178.728 79.3568 178.728 79.0806V60.3827C178.728 60.1065 178.503 59.882 178.227 59.882H162.58Z" fill="#2563EB"/>
<path d="M157.254 80.3665H142.646C141.65 80.3665 140.841 79.5558 140.841 78.5615V60.9024C140.841 59.9064 141.652 59.0975 142.646 59.0975H157.254C158.25 59.0975 159.059 59.9082 159.059 60.9024V78.5615C159.059 79.5576 158.249 80.3665 157.254 80.3665ZM142.646 59.8815C142.083 59.8815 141.625 60.3394 141.625 60.9024V78.5615C141.625 79.1246 142.083 79.5825 142.646 79.5825H157.254C157.818 79.5825 158.275 79.1246 158.275 78.5615V60.9024C158.275 60.3394 157.818 59.8815 157.254 59.8815H142.646Z" fill="#2563EB"/>
<path d="M124.896 130.499H109.963C109.056 130.499 108.319 129.762 108.319 128.855V106.003C108.319 105.096 109.056 104.359 109.963 104.359H124.896C125.803 104.359 126.541 105.096 126.541 106.003V128.855C126.541 129.762 125.803 130.499 124.896 130.499ZM109.963 105.145C109.489 105.145 109.104 105.529 109.104 106.003V128.855C109.104 129.329 109.489 129.713 109.963 129.713H124.896C125.37 129.713 125.755 129.329 125.755 128.855V106.003C125.755 105.529 125.37 105.145 124.896 105.145H109.963Z" fill="#2563EB"/>
<path d="M104.315 130.5H89.6349C88.6585 130.5 87.8638 129.705 87.8638 128.729V106.129C87.8638 105.152 88.6585 104.357 89.6349 104.357H104.315C105.291 104.357 106.086 105.152 106.086 106.129V128.729C106.086 129.705 105.291 130.5 104.315 130.5ZM89.6349 105.145C89.0914 105.145 88.6495 105.587 88.6495 106.13V128.73C88.6495 129.274 89.0914 129.716 89.6349 129.716H104.315C104.858 129.716 105.3 129.274 105.3 128.73V106.13C105.3 105.587 104.858 105.145 104.315 105.145H89.6349Z" fill="#2563EB"/>
<path d="M125.253 158.671H109.605C108.896 158.671 108.319 158.094 108.319 157.384V133.817C108.319 133.108 108.896 132.531 109.605 132.531H125.253C125.962 132.531 126.539 133.108 126.539 133.817V157.384C126.539 158.094 125.962 158.671 125.253 158.671ZM109.605 133.316C109.329 133.316 109.104 133.541 109.104 133.817V157.384C109.104 157.661 109.329 157.885 109.605 157.885H125.253C125.529 157.885 125.753 157.661 125.753 157.384V133.817C125.753 133.541 125.529 133.316 125.253 133.316H109.605Z" fill="#2563EB"/>
<path d="M104.28 158.67H89.6709C88.6749 158.67 87.866 157.86 87.866 156.865V134.337C87.866 133.341 88.6767 132.532 89.6709 132.532H104.28C105.276 132.532 106.085 133.343 106.085 134.337V156.865C106.085 157.861 105.274 158.67 104.28 158.67ZM89.6709 133.316C89.1079 133.316 88.65 133.774 88.65 134.337V156.865C88.65 157.429 89.1079 157.886 89.6709 157.886H104.28C104.843 157.886 105.301 157.429 105.301 156.865V134.337C105.301 133.774 104.843 133.316 104.28 133.316H89.6709Z" fill="#2563EB"/>
<path d="M161.967 0.786308L254.092 49.9525C256.045 50.9948 256.415 53.1133 254.89 54.5209L251.371 58.9344C249.807 60.8961 247.077 61.4841 244.844 60.3402L161.295 17.5937C160.738 17.3069 160.075 17.3051 159.515 17.5884L73.9085 60.7839C72.7806 61.354 71.4086 61.0707 70.5944 60.1032L66.9702 55.786C64.9087 53.3307 65.7569 50.0505 68.8785 48.397L158.84 0.780963C159.818 0.262468 160.989 0.266031 161.965 0.786308H161.967Z" fill="#2563EB"/>
<path d="M72.6755 61.4711C71.7792 61.4711 70.9026 61.0826 70.2933 60.3557L66.6691 56.0385C65.6624 54.8375 65.2597 53.3925 65.5377 51.9671C65.8495 50.3742 66.9988 48.947 68.695 48.049L158.657 0.432974C159.751 -0.146101 161.058 -0.144319 162.151 0.438319L254.275 49.6063C255.366 50.1871 256.066 51.119 256.2 52.1613C256.322 53.1235 255.959 54.0553 255.177 54.7877L251.676 59.1779C250.003 61.2769 247.052 61.9112 244.663 60.6889L161.114 17.9424C160.668 17.7144 160.135 17.7126 159.688 17.9371L74.0813 61.1325C73.6305 61.3606 73.1494 61.4693 72.6737 61.4693L72.6755 61.4711ZM160.399 0.785767C159.927 0.785767 159.455 0.899797 159.025 1.12786L69.0638 48.7439C67.5796 49.5297 66.5747 50.7591 66.311 52.1186C66.0794 53.3052 66.4215 54.5186 67.2731 55.5342L70.8973 59.8514C71.5957 60.6853 72.7628 60.9241 73.7321 60.4341L159.337 17.2386C160.007 16.9001 160.807 16.9019 161.474 17.2458L245.022 59.9922C247.08 61.0452 249.621 60.4982 251.063 58.6897L254.582 54.2763C254.594 54.2603 254.608 54.246 254.623 54.2317C255.229 53.6723 255.514 52.972 255.423 52.2611C255.321 51.4753 254.769 50.7591 253.906 50.2994L161.782 1.13143C161.349 0.899801 160.873 0.785767 160.399 0.785767Z" fill="white"/>
<path d="M180.352 103.826H138.611C137.31 103.826 136.255 104.88 136.255 106.181V197.253C136.255 198.554 137.31 199.609 138.611 199.609H180.352C181.653 199.609 182.708 198.554 182.708 197.253V106.181C182.708 104.88 181.653 103.826 180.352 103.826Z" fill="white"/>
<path d="M180.351 200H138.612C137.095 200 135.862 198.767 135.862 197.251V106.181C135.862 104.665 137.095 103.432 138.612 103.432H180.351C181.868 103.432 183.101 104.665 183.101 106.181V197.251C183.101 198.767 181.868 200 180.351 200ZM138.612 104.218C137.528 104.218 136.648 105.098 136.648 106.181V197.251C136.648 198.334 137.528 199.214 138.612 199.214H180.351C181.435 199.214 182.315 198.334 182.315 197.251V106.181C182.315 105.098 181.435 104.218 180.351 104.218H138.612Z" fill="#2563EB"/>
<path d="M179.007 196.084L140.614 196.226C139.616 196.226 138.809 195.417 138.809 194.421V108.303C138.809 107.305 139.618 106.498 140.614 106.498L179.667 106.546C180.379 106.546 180.951 107.132 180.937 107.845L179.009 196.086L179.007 196.084Z" fill="#2563EB"/>
<path d="M188.544 191.083H130.619C130.005 191.083 129.507 191.58 129.507 192.194V198.322C129.507 198.936 130.005 199.434 130.619 199.434H188.544C189.159 199.434 189.656 198.936 189.656 198.322V192.194C189.656 191.58 189.159 191.083 188.544 191.083Z" fill="white"/>
<path d="M188.546 199.826H130.621C129.79 199.826 129.115 199.151 129.115 198.322V192.195C129.115 191.364 129.79 190.691 130.621 190.691H188.546C189.376 190.691 190.05 191.366 190.05 192.195V198.322C190.05 199.153 189.374 199.826 188.546 199.826ZM130.621 191.475C130.223 191.475 129.901 191.797 129.901 192.195V198.322C129.901 198.72 130.223 199.042 130.621 199.042H188.546C188.943 199.042 189.266 198.72 189.266 198.322V192.195C189.266 191.797 188.943 191.475 188.546 191.475H130.621Z" fill="#2563EB"/>
<path d="M151.387 186.926C150.739 186.826 150.26 186.27 150.254 185.614L149.809 112.273C149.809 112.006 150.001 111.779 150.265 111.735L180.12 106.687C180.559 106.612 180.958 106.953 180.956 107.396L180.658 191.417L151.386 186.926H151.387Z" fill="white"/>
<path d="M180.659 191.811C180.64 191.811 180.62 191.811 180.601 191.806L151.328 187.314C150.483 187.184 149.867 186.471 149.861 185.616L149.416 112.275C149.416 111.811 149.746 111.423 150.2 111.346L180.055 106.298C180.378 106.243 180.707 106.334 180.959 106.546C181.208 106.758 181.352 107.068 181.351 107.396L181.053 191.417C181.053 191.531 181.003 191.64 180.916 191.715C180.845 191.775 180.754 191.809 180.661 191.809L180.659 191.811ZM180.242 107.068C180.225 107.068 180.205 107.068 180.185 107.074L150.33 112.121C150.255 112.134 150.202 112.198 150.202 112.273L150.647 185.61C150.651 186.075 150.986 186.466 151.447 186.537L180.269 190.959L180.565 107.392C180.565 107.261 180.494 107.18 180.451 107.145C180.415 107.115 180.344 107.068 180.244 107.068H180.242Z" fill="#2563EB"/>
<path d="M230.634 91.6336H86.5241C86.3067 91.6336 86.1321 91.4572 86.1321 91.2416C86.1321 91.026 86.3085 90.8496 86.5241 90.8496H230.634C230.851 90.8496 231.026 91.026 231.026 91.2416C231.026 91.4572 230.849 91.6336 230.634 91.6336Z" fill="#2563EB"/>
<path d="M46.6688 60.3113C46.5654 60.3113 46.4639 60.2704 46.3891 60.1955C45.785 59.5844 31.554 45.152 29.1825 38.4312C29.1148 38.2388 29.2057 38.0267 29.391 37.943C29.5389 37.8771 44.2848 31.2168 47.7788 27.1187C47.8822 26.9976 48.0497 26.9513 48.2011 27.0011C48.3526 27.051 48.4595 27.1882 48.4702 27.3486C48.5361 28.3428 50.0595 51.807 47.0376 60.0565C46.9913 60.1831 46.8844 60.2775 46.7525 60.306C46.724 60.3113 46.6973 60.3149 46.6688 60.3149V60.3113ZM30.0502 38.506C32.4521 44.5355 44.0692 56.6837 46.5013 59.187C48.8871 51.545 47.9855 32.6369 47.7396 28.2965C43.6576 32.195 32.2151 37.5189 30.0502 38.5078V38.506Z" fill="#2563EB"/>
</svg>
