<svg width="40" height="40" viewBox="0 0 40 40" fill="none" xmlns="http://www.w3.org/2000/svg">
<circle cx="20" cy="20" r="15" fill="#1F2937" fill-opacity="0.8"/>
<path d="M20.8701 25.458H19.1138L18.3726 8.44238H21.6113L20.8701 25.458ZM18.0503 30.3242C18.0503 29.5723 18.2329 29.0405 18.5981 28.729C18.9634 28.4067 19.4199 28.2456 19.9678 28.2456C20.5049 28.2456 20.9561 28.4067 21.3213 28.729C21.6973 29.0405 21.8853 29.5723 21.8853 30.3242C21.8853 31.0654 21.6973 31.6079 21.3213 31.9517C20.9561 32.2847 20.5049 32.4512 19.9678 32.4512C19.4199 32.4512 18.9634 32.2847 18.5981 31.9517C18.2329 31.6079 18.0503 31.0654 18.0503 30.3242Z" fill="#F5F9FF"/>
</svg>
