<svg width="200" height="200" viewBox="0 0 200 200" fill="none" xmlns="http://www.w3.org/2000/svg">
<mask id="mask0_92_7281" style="mask-type:luminance" maskUnits="userSpaceOnUse" x="27" y="27" width="146" height="146">
<path d="M27.2002 27.2H172.8V172.8H27.2002V27.2Z" fill="white"/>
</mask>
<g mask="url(#mask0_92_7281)">
<mask id="mask1_92_7281" style="mask-type:luminance" maskUnits="userSpaceOnUse" x="27" y="27" width="146" height="146">
<path d="M105.284 29.1167C108.565 31.7063 112.959 32.4021 116.879 30.9542C120.582 29.5854 124.738 30.9375 126.929 34.2188C129.25 37.6959 133.213 39.7146 137.39 39.5479C141.334 39.3917 144.869 41.9604 145.938 45.7604C147.071 49.7834 150.217 52.9292 154.24 54.0625C158.04 55.1313 160.609 58.6667 160.452 62.6104C160.286 66.7875 162.305 70.75 165.782 73.0709C169.063 75.2625 170.415 79.4188 169.046 83.1209C167.598 87.0417 168.294 91.4354 170.884 94.7167C173.327 97.8146 173.327 102.185 170.884 105.283C168.294 108.565 167.598 112.958 169.046 116.879C170.415 120.581 169.063 124.738 165.782 126.929C162.305 129.25 160.286 133.213 160.452 137.39C160.609 141.333 158.04 144.869 154.24 145.938C150.217 147.071 147.071 150.217 145.938 154.24C144.869 158.04 141.334 160.608 137.39 160.452C133.213 160.285 129.25 162.304 126.929 165.781C124.738 169.063 120.582 170.415 116.879 169.046C112.959 167.598 108.565 168.294 105.284 170.883C102.186 173.327 97.8149 173.327 94.717 170.883C91.4357 168.294 87.042 167.598 83.1212 169.046C79.4191 170.415 75.2628 169.063 73.0712 165.781C70.7503 162.304 66.7878 160.285 62.6107 160.452C58.667 160.608 55.1316 158.04 54.0628 154.24C52.9295 150.217 49.7837 147.071 45.7607 145.938C41.9607 144.869 39.392 141.333 39.5482 137.39C39.7149 133.213 37.6962 129.25 34.2191 126.929C30.9378 124.738 29.5857 120.581 30.9545 116.879C32.4024 112.958 31.7066 108.565 29.117 105.283C26.6732 102.185 26.6732 97.8146 29.117 94.7167C31.7066 91.4354 32.4024 87.0417 30.9545 83.1209C29.5857 79.4188 30.9378 75.2625 34.2191 73.0709C37.6962 70.75 39.7149 66.7875 39.5482 62.6104C39.392 58.6667 41.9607 55.1313 45.7607 54.0625C49.7837 52.9292 52.9295 49.7834 54.0628 45.7604C55.1316 41.9604 58.667 39.3917 62.6107 39.5479C66.7878 39.7146 70.7503 37.6959 73.0712 34.2188C75.2628 30.9375 79.4191 29.5854 83.1212 30.9542C87.042 32.4021 91.4357 31.7063 94.717 29.1167C97.8149 26.6729 102.186 26.6729 105.284 29.1167Z" fill="white"/>
</mask>
<g mask="url(#mask1_92_7281)">
<path d="M24.9482 24.9479H175.052V175.052H24.9482V24.9479Z" fill="#090F21"/>
</g>
</g>
<mask id="mask2_92_7281" style="mask-type:luminance" maskUnits="userSpaceOnUse" x="38" y="38" width="124" height="124">
<path d="M38.5479 38.5479H161.452V161.452H38.5479V38.5479Z" fill="white"/>
</mask>
<g mask="url(#mask2_92_7281)">
<mask id="mask3_92_7281" style="mask-type:luminance" maskUnits="userSpaceOnUse" x="38" y="38" width="124" height="124">
<path d="M99.9999 38.5479C66.0604 38.5479 38.5479 66.0604 38.5479 100C38.5479 133.94 66.0604 161.452 99.9999 161.452C133.94 161.452 161.452 133.94 161.452 100C161.452 66.0604 133.94 38.5479 99.9999 38.5479Z" fill="white"/>
</mask>
<g mask="url(#mask3_92_7281)">
<path d="M38.5479 38.5479H161.452V161.452H38.5479V38.5479Z" fill="white"/>
</g>
</g>
<mask id="mask4_92_7281" style="mask-type:luminance" maskUnits="userSpaceOnUse" x="43" y="43" width="114" height="114">
<path d="M43.896 43.8958H156.102V156.102H43.896V43.8958Z" fill="white"/>
</mask>
<g mask="url(#mask4_92_7281)">
<mask id="mask5_92_7281" style="mask-type:luminance" maskUnits="userSpaceOnUse" x="43" y="43" width="114" height="114">
<path d="M100 43.8958C69.0147 43.8958 43.896 69.0146 43.896 100C43.896 130.983 69.0147 156.102 100 156.102C130.983 156.102 156.102 130.983 156.102 100C156.102 69.0146 130.983 43.8958 100 43.8958Z" fill="white"/>
</mask>
<g mask="url(#mask5_92_7281)">
<path d="M97.6357 45.1458C97.2441 45.1625 96.8524 45.1833 96.4628 45.2083L96.3107 42.8125C96.717 42.7875 97.1253 42.7646 97.5337 42.7479L97.6357 45.1458ZM95.2962 45.2937C94.9087 45.3271 94.5191 45.3646 94.1316 45.4062L93.8795 43.0187C94.2837 42.9771 94.6878 42.9375 95.0941 42.9021L95.2962 45.2937ZM92.9587 45.5437C92.5691 45.5937 92.1816 45.6458 91.792 45.7041L91.4378 43.3312C91.842 43.2708 92.2482 43.2146 92.6545 43.1625L92.9587 45.5437ZM90.6337 45.8916C90.2503 45.9562 89.867 46.0271 89.4837 46.1021L89.0274 43.7458C89.4274 43.6687 89.8274 43.5958 90.2274 43.525L90.6337 45.8916ZM88.3337 46.3375C87.9503 46.4208 87.567 46.5083 87.1857 46.6L86.6274 44.2646C87.0253 44.1687 87.4253 44.0791 87.8274 43.9916L88.3337 46.3375ZM86.0441 46.8854C85.667 46.9833 85.2899 47.0875 84.9149 47.1937L84.2566 44.8854C84.6482 44.775 85.042 44.6666 85.4357 44.5625L86.0441 46.8854ZM83.7941 47.5271C83.4191 47.6416 83.0441 47.7625 82.6712 47.8854L81.9149 45.6083C82.3045 45.4791 82.6941 45.3541 83.0857 45.2333L83.7941 47.5271ZM81.5587 48.2687C81.1899 48.4 80.8232 48.5354 80.4566 48.675L79.6024 46.4333C79.9837 46.2875 80.367 46.1458 80.7524 46.0083L81.5587 48.2687ZM79.367 49.1041C79.0045 49.2521 78.6441 49.4021 78.2857 49.5562L77.3357 47.3521C77.7087 47.1916 78.0857 47.0333 78.4649 46.8812L79.367 49.1041ZM77.2087 50.0354C76.8524 50.1979 76.4982 50.3646 76.1441 50.5354L75.1003 48.3729C75.4691 48.1958 75.8399 48.0208 76.2107 47.8521L77.2087 50.0354ZM75.0941 51.0562C74.7462 51.2333 74.4003 51.4146 74.0566 51.6L72.9191 49.4854C73.2795 49.2916 73.6399 49.1041 74.0045 48.9187L75.0941 51.0562ZM73.0253 52.1666C72.6837 52.3604 72.3462 52.5562 72.0087 52.7562L70.7837 50.6937C71.1357 50.4854 71.4878 50.2791 71.8441 50.0771L73.0253 52.1666ZM71.0045 53.3666C70.6732 53.575 70.3441 53.7854 70.0149 53.9979L68.7024 51.9896C69.0441 51.7666 69.3899 51.5458 69.7357 51.3312L71.0045 53.3666ZM69.0399 54.65C68.717 54.8729 68.3962 55.0979 68.0774 55.325L66.6795 53.3729C67.0128 53.1354 67.3482 52.9 67.6857 52.6708L69.0399 54.65ZM67.1274 56.0187C66.8149 56.2541 66.5045 56.4916 66.1962 56.7333L64.717 54.8437C65.0378 54.5916 65.3628 54.3437 65.6899 54.0979L67.1274 56.0187ZM65.2795 57.4666C64.9753 57.7146 64.6753 57.9646 64.3774 58.2187L62.8191 56.3937C63.1295 56.1291 63.4441 55.8666 63.7607 55.6083L65.2795 57.4666ZM63.492 58.9916C63.1982 59.2521 62.9087 59.5166 62.6232 59.7833L60.9878 58.025C61.2878 57.7458 61.5899 57.4708 61.8941 57.2L63.492 58.9916ZM61.7712 60.5916C61.4899 60.8645 61.2128 61.1395 60.9357 61.4187L59.2295 59.7312C59.517 59.4416 59.8066 59.1541 60.1003 58.8687L61.7712 60.5916ZM60.1212 62.2625C59.8503 62.5479 59.5857 62.8354 59.3212 63.125L57.5441 61.5125C57.8191 61.2104 58.0962 60.9104 58.3774 60.6125L60.1212 62.2625ZM58.542 64.0041C58.2837 64.3 58.0316 64.5979 57.7795 64.8979L55.9357 63.3625C56.1962 63.0479 56.4628 62.7375 56.7295 62.4291L58.542 64.0041ZM57.0378 65.8083C56.7941 66.1145 56.5545 66.4229 56.317 66.7354L54.4087 65.2791C54.6566 64.9541 54.9066 64.6333 55.1628 64.3125L57.0378 65.8083ZM55.6149 67.677C55.3837 67.9937 55.1566 68.3125 54.9316 68.6333L52.9628 67.2604C53.1962 66.925 53.4337 66.5916 53.6753 66.2625L55.6149 67.677ZM54.2691 69.6041C54.0524 69.9291 53.8399 70.2583 53.6295 70.5875L51.6045 69.3C51.8232 68.9562 52.0462 68.6145 52.2732 68.275L54.2691 69.6041ZM53.0107 71.5854C52.8087 71.9208 52.6087 72.2583 52.4128 72.5979L50.3337 71.3979C50.5378 71.0437 50.7462 70.6916 50.9587 70.3416L53.0107 71.5854ZM51.8357 73.6229C51.6482 73.9645 51.4628 74.3104 51.2816 74.6562L49.1545 73.5479C49.342 73.1854 49.5357 72.825 49.7316 72.4666L51.8357 73.6229ZM50.7503 75.702C50.5774 76.0541 50.4087 76.4062 50.242 76.7604L48.0691 75.7437C48.242 75.3729 48.4191 75.0041 48.6003 74.6395L50.7503 75.702ZM49.7545 77.8312C49.5962 78.1895 49.442 78.55 49.292 78.9125L47.0753 77.9895C47.2337 77.6125 47.3941 77.2354 47.5607 76.8625L49.7545 77.8312ZM48.8524 79.9979C48.7107 80.3625 48.5712 80.727 48.4378 81.0958L46.1837 80.2687C46.3253 79.8854 46.4691 79.5041 46.6191 79.1229L48.8524 79.9979ZM48.0441 82.202C47.917 82.575 47.7941 82.9479 47.6753 83.3208L45.3878 82.5937C45.5128 82.202 45.6399 81.8125 45.7732 81.425L48.0441 82.202ZM47.3316 84.4416C47.2212 84.8166 47.1149 85.1916 47.0128 85.5687L44.6962 84.9395C44.8024 84.5458 44.9128 84.1541 45.0295 83.7625L47.3316 84.4416ZM46.717 86.7041C46.6212 87.0854 46.5316 87.4687 46.4441 87.85L44.1045 87.3208C44.1941 86.9229 44.2878 86.5229 44.3878 86.125L46.717 86.7041ZM46.1962 89.0041C46.1191 89.3854 46.0462 89.7666 45.9774 90.15L43.6149 89.7229C43.6878 89.3229 43.7649 88.925 43.8462 88.527L46.1962 89.0041ZM45.7816 91.3062C45.7191 91.6916 45.6607 92.0791 45.6087 92.4687L43.2316 92.1416C43.2857 91.7375 43.3462 91.3312 43.4107 90.9291L45.7816 91.3062ZM45.4607 93.6395C45.4149 94.0291 45.3753 94.4187 45.3378 94.8083L42.9482 94.5854C42.9878 94.177 43.0295 93.7708 43.0774 93.3645L45.4607 93.6395ZM45.242 95.9708C45.2128 96.3604 45.1899 96.752 45.1691 97.1416L42.7732 97.0187C42.7941 96.6125 42.8191 96.2041 42.8482 95.7979L45.242 95.9708ZM45.1212 98.3187C45.1087 98.7125 45.1024 99.1062 45.0982 99.5L42.6982 99.4791C42.7024 99.0687 42.7107 98.6562 42.7232 98.2458L45.1212 98.3187ZM45.1003 100.687C45.1045 101.081 45.1149 101.477 45.1274 101.869L42.7295 101.95C42.7149 101.54 42.7066 101.129 42.7003 100.717L45.1003 100.687ZM45.1795 103.046C45.2003 103.435 45.2253 103.825 45.2566 104.215L42.8628 104.396C42.8316 103.99 42.8045 103.583 42.7837 103.175L45.1795 103.046ZM45.3566 105.375C45.3941 105.767 45.4357 106.158 45.4837 106.548L43.1003 106.831C43.0503 106.425 43.0066 106.017 42.967 105.608L45.3566 105.375ZM45.6337 107.717C45.6899 108.106 45.7482 108.492 45.8107 108.879L43.442 109.265C43.3753 108.86 43.3149 108.456 43.2587 108.052L45.6337 107.717ZM46.0107 110.033C46.0816 110.415 46.1566 110.798 46.2357 111.179L43.8857 111.665C43.8024 111.267 43.7253 110.869 43.6503 110.469L46.0107 110.033ZM46.4857 112.333C46.5753 112.715 46.667 113.096 46.7628 113.477L44.4357 114.065C44.3357 113.667 44.2399 113.269 44.1482 112.869L46.4857 112.333ZM47.0607 114.61C47.1649 114.987 47.2732 115.362 47.3837 115.735L45.0857 116.423C44.9691 116.033 44.8566 115.642 44.7482 115.248L47.0607 114.61ZM47.7316 116.856C47.8524 117.231 47.9774 117.602 48.1066 117.975L45.8378 118.76C45.7045 118.373 45.5732 117.983 45.4482 117.594L47.7316 116.856ZM48.5024 119.081C48.6378 119.448 48.7774 119.812 48.9212 120.175L46.6899 121.058C46.5399 120.679 46.3941 120.298 46.2524 119.915L48.5024 119.081ZM49.3649 121.26C49.517 121.621 49.6712 121.981 49.8316 122.34L47.6399 123.317C47.4732 122.944 47.3107 122.567 47.1524 122.19L49.3649 121.26ZM50.3232 123.408C50.4899 123.762 50.6607 124.115 50.8357 124.465L48.6878 125.535C48.5045 125.171 48.3274 124.802 48.1524 124.433L50.3232 123.408ZM51.3691 125.508C51.5524 125.854 51.7378 126.2 51.9274 126.542L49.8274 127.704C49.6295 127.346 49.4357 126.987 49.2462 126.625L51.3691 125.508ZM52.5066 127.565C52.7045 127.904 52.9045 128.24 53.1087 128.575L51.0607 129.825C50.8482 129.477 50.6378 129.125 50.4337 128.771L52.5066 127.565ZM53.7316 129.569C53.942 129.898 54.1566 130.225 54.3753 130.55L52.3816 131.887C52.1545 131.548 51.9316 131.208 51.7107 130.865L53.7316 129.569ZM55.0399 131.519C55.2649 131.84 55.4941 132.158 55.7253 132.475L53.792 133.896C53.5503 133.565 53.3107 133.233 53.0753 132.9L55.0399 131.519ZM56.4316 133.412C56.6691 133.723 56.9107 134.031 57.1566 134.337L55.2857 135.84C55.0295 135.521 54.7774 135.2 54.5274 134.875L56.4316 133.412ZM57.9024 135.244C58.1524 135.546 58.4087 135.842 58.6649 136.137L56.8607 137.719C56.5899 137.41 56.3253 137.1 56.0628 136.785L57.9024 135.244ZM59.4482 137.012C59.7128 137.302 59.9795 137.59 60.2503 137.873L58.5128 139.527C58.2316 139.231 57.9524 138.933 57.6774 138.631L59.4482 137.012ZM61.0691 138.715C61.3462 138.992 61.6253 139.267 61.9066 139.537L60.242 141.267C59.9462 140.983 59.6566 140.696 59.367 140.406L61.0691 138.715ZM62.7607 140.344C63.0482 140.61 63.3399 140.873 63.6337 141.131L62.042 142.929C61.7357 142.658 61.4337 142.383 61.1337 142.106L62.7607 140.344ZM64.5212 141.902C64.8191 142.154 65.1212 142.404 65.4253 142.65L63.9128 144.515C63.5962 144.256 63.2816 143.996 62.9691 143.731L64.5212 141.902ZM66.3441 143.381C66.6545 143.621 66.9649 143.858 67.2795 144.092L65.8482 146.019C65.5212 145.775 65.1941 145.527 64.8732 145.277L66.3441 143.381ZM68.2295 144.783C68.5503 145.01 68.8712 145.233 69.1962 145.454L67.8482 147.44C67.5087 147.21 67.1732 146.975 66.8399 146.74L68.2295 144.783ZM70.1732 146.102C70.5024 146.315 70.8337 146.525 71.1649 146.731L69.9024 148.771C69.5545 148.556 69.2107 148.337 68.8691 148.117L70.1732 146.102ZM72.1712 147.337C72.5087 147.537 72.8482 147.731 73.1899 147.923L72.017 150.017C71.6607 149.817 71.3045 149.612 70.9524 149.406L72.1712 147.337ZM74.2212 148.487C74.567 148.671 74.9128 148.85 75.2628 149.027L74.1795 151.169C73.8149 150.985 73.4524 150.796 73.0941 150.604L74.2212 148.487ZM76.3149 149.546C76.6691 149.715 77.0232 149.879 77.3816 150.042L76.392 152.229C76.0191 152.06 75.6482 151.887 75.2795 151.71L76.3149 149.546ZM78.4587 150.517C78.817 150.669 79.1795 150.819 79.542 150.965L78.6462 153.192C78.2691 153.04 77.892 152.883 77.517 152.723L78.4587 150.517ZM80.6337 151.39C81.0003 151.527 81.367 151.662 81.7378 151.792L80.9399 154.056C80.5524 153.919 80.1691 153.779 79.7878 153.635L80.6337 151.39ZM82.8524 152.171C83.2232 152.294 83.5982 152.412 83.9732 152.527L83.2732 154.823C82.8816 154.702 82.492 154.579 82.1024 154.452L82.8524 152.171ZM85.0962 152.856C85.4712 152.96 85.8482 153.062 86.2274 153.16L85.6274 155.485C85.2316 155.383 84.8378 155.277 84.4462 155.167L85.0962 152.856ZM87.3691 153.442C87.7524 153.533 88.1357 153.619 88.5191 153.7L88.0212 156.048C87.6191 155.962 87.2191 155.873 86.8191 155.779L87.3691 153.442ZM89.6691 153.931C90.0524 154.004 90.4357 154.073 90.8212 154.137L90.4212 156.504C90.0212 156.437 89.6212 156.367 89.2212 156.29L89.6691 153.931ZM91.9795 154.321C92.367 154.377 92.7566 154.431 93.1462 154.479L92.8503 156.86C92.4441 156.81 92.0378 156.754 91.6316 156.696L91.9795 154.321ZM94.3212 154.612C94.7087 154.652 95.0962 154.687 95.4837 154.719L95.2878 157.11C94.8837 157.079 94.4795 157.042 94.0774 157L94.3212 154.612ZM96.6503 154.802C97.042 154.825 97.4337 154.844 97.8232 154.86L97.7316 157.258C97.3212 157.242 96.9128 157.223 96.5066 157.198L96.6503 154.802ZM98.9941 154.894L100.011 154.902H100.192L100.196 157.302H99.9878L98.9732 157.294L98.9941 154.894ZM101.375 154.885C101.767 154.875 102.161 154.862 102.552 154.844L102.663 157.242C102.252 157.26 101.844 157.275 101.434 157.285L101.375 154.885ZM103.725 154.777C104.113 154.752 104.5 154.721 104.89 154.687L105.1 157.079C104.696 157.115 104.29 157.146 103.886 157.173L103.725 154.777ZM106.057 154.573C106.446 154.529 106.838 154.481 107.227 154.431L107.542 156.81C107.134 156.865 106.725 156.912 106.317 156.958L106.057 154.573ZM108.392 154.265C108.779 154.206 109.165 154.142 109.55 154.075L109.965 156.44C109.563 156.508 109.161 156.575 108.757 156.637L108.392 154.265ZM110.698 153.86C111.082 153.785 111.467 153.704 111.85 153.621L112.365 155.965C111.965 156.052 111.565 156.135 111.163 156.215L110.698 153.86ZM112.998 153.354C113.377 153.262 113.759 153.167 114.136 153.065L114.752 155.385C114.359 155.49 113.961 155.59 113.565 155.687L112.998 153.354ZM115.265 152.752C115.64 152.644 116.013 152.531 116.386 152.415L117.1 154.706C116.713 154.827 116.323 154.946 115.932 155.058L115.265 152.752ZM117.507 152.052C117.879 151.927 118.248 151.798 118.617 151.665L119.432 153.923C119.046 154.062 118.661 154.196 118.271 154.327L117.507 152.052ZM119.717 151.256C120.082 151.115 120.446 150.971 120.807 150.823L121.717 153.044C121.34 153.198 120.961 153.348 120.579 153.496L119.717 151.256ZM121.888 150.367C122.248 150.208 122.607 150.048 122.963 149.885L123.967 152.065C123.594 152.235 123.221 152.402 122.846 152.567L121.888 150.367ZM124.023 149.381C124.375 149.21 124.725 149.035 125.073 148.856L126.171 150.99C125.807 151.177 125.442 151.36 125.075 151.537L124.023 149.381ZM126.109 148.308C126.454 148.123 126.796 147.931 127.138 147.737L128.325 149.823C127.969 150.025 127.613 150.225 127.252 150.419L126.109 148.308ZM128.152 147.144C128.488 146.944 128.823 146.74 129.154 146.531L130.429 148.562C130.084 148.781 129.736 148.994 129.386 149.204L128.152 147.144ZM130.142 145.896C130.467 145.681 130.792 145.462 131.115 145.24L132.477 147.217C132.14 147.448 131.802 147.677 131.461 147.9L130.142 145.896ZM132.075 144.562C132.394 144.333 132.709 144.102 133.021 143.865L134.467 145.781C134.14 146.027 133.811 146.271 133.479 146.508L132.075 144.562ZM133.952 143.148C134.259 142.906 134.563 142.66 134.865 142.412L136.39 144.265C136.075 144.525 135.759 144.781 135.438 145.033L133.952 143.148ZM135.765 141.656C136.063 141.4 136.357 141.142 136.648 140.881L138.25 142.667C137.946 142.94 137.64 143.21 137.329 143.475L135.765 141.656ZM137.515 140.087C137.8 139.819 138.084 139.548 138.363 139.275L140.04 140.992C139.748 141.277 139.452 141.558 139.154 141.84L137.515 140.087ZM139.194 138.446C139.469 138.165 139.74 137.883 140.009 137.598L141.757 139.242C141.477 139.54 141.194 139.833 140.909 140.125L139.194 138.446ZM140.804 136.733C141.065 136.442 141.325 136.148 141.582 135.852L143.398 137.421C143.132 137.729 142.861 138.035 142.588 138.34L140.804 136.733ZM142.34 134.954C142.588 134.652 142.834 134.348 143.077 134.042L144.959 135.531C144.707 135.85 144.448 136.169 144.19 136.483L142.34 134.954ZM143.796 133.112C144.034 132.8 144.265 132.485 144.496 132.169L146.44 133.577C146.2 133.908 145.957 134.235 145.709 134.562L143.796 133.112ZM145.175 131.208C145.398 130.887 145.617 130.562 145.834 130.237L147.836 131.56C147.611 131.9 147.382 132.24 147.148 132.575L145.175 131.208ZM146.469 129.25C146.679 128.919 146.884 128.587 147.086 128.252L149.142 129.487C148.932 129.837 148.717 130.185 148.5 130.531L146.469 129.25ZM147.679 127.237C147.875 126.896 148.067 126.554 148.255 126.21L150.363 127.356C150.167 127.717 149.967 128.075 149.763 128.429L147.679 127.237ZM148.802 125.175C148.984 124.827 149.159 124.477 149.332 124.127L151.486 125.183C151.307 125.55 151.123 125.915 150.936 126.277L148.802 125.175ZM149.836 123.067C150.002 122.71 150.163 122.352 150.319 121.994L152.519 122.956C152.354 123.331 152.186 123.704 152.015 124.075L149.836 123.067ZM150.779 120.912C150.927 120.55 151.073 120.187 151.215 119.825L153.452 120.692C153.304 121.071 153.154 121.45 152.998 121.827L150.779 120.912ZM151.625 118.725C151.761 118.356 151.89 117.987 152.015 117.617L154.288 118.385C154.157 118.773 154.021 119.16 153.882 119.544L151.625 118.725ZM152.382 116.496C152.498 116.123 152.611 115.75 152.721 115.375L155.025 116.046C154.911 116.437 154.792 116.827 154.671 117.217L152.382 116.496ZM153.036 114.248C153.138 113.869 153.234 113.49 153.327 113.11L155.659 113.681C155.561 114.077 155.461 114.473 155.354 114.869L153.036 114.248ZM153.596 111.962C153.682 111.579 153.761 111.196 153.838 110.81L156.192 111.279C156.113 111.681 156.027 112.083 155.938 112.483L153.596 111.962ZM154.054 109.662C154.123 109.277 154.188 108.892 154.248 108.506L156.619 108.875C156.557 109.277 156.49 109.679 156.419 110.081L154.054 109.662ZM154.415 107.342C154.467 106.952 154.515 106.562 154.559 106.171L156.944 106.437C156.898 106.846 156.848 107.254 156.794 107.66L154.415 107.342ZM154.677 105.002C154.713 104.615 154.744 104.227 154.771 103.84L157.165 104.004C157.136 104.408 157.104 104.815 157.067 105.219L154.677 105.002ZM154.838 102.667C154.857 102.275 154.871 101.883 154.884 101.49L157.282 101.554C157.271 101.965 157.257 102.373 157.236 102.783L154.838 102.667ZM154.902 100.31V99.9958L154.896 99.1104L157.296 99.0916L157.302 100.002V100.317L154.902 100.31ZM154.865 97.9395C154.85 97.5479 154.832 97.1562 154.809 96.7645L157.204 96.625C157.229 97.0333 157.248 97.4416 157.263 97.85L154.865 97.9395ZM154.729 95.5979C154.698 95.2104 154.663 94.8229 154.623 94.4354L157.013 94.1958C157.052 94.6 157.09 95.002 157.121 95.4062L154.729 95.5979ZM154.494 93.2604C154.446 92.8708 154.394 92.4812 154.338 92.0937L156.713 91.75C156.771 92.1562 156.825 92.5625 156.875 92.9708L154.494 93.2604ZM154.159 90.9333C154.094 90.5479 154.025 90.1645 153.954 89.7812L156.313 89.3375C156.388 89.7375 156.459 90.1375 156.525 90.5395L154.159 90.9333ZM153.725 88.6333C153.644 88.2479 153.559 87.8645 153.469 87.4812L155.807 86.9354C155.9 87.3354 155.988 87.7375 156.073 88.1395L153.725 88.6333ZM153.19 86.3375C153.092 85.9604 152.992 85.5812 152.886 85.2062L155.198 84.5604C155.309 84.9541 155.413 85.3479 155.515 85.7437L153.19 86.3375ZM152.561 84.0812C152.446 83.7062 152.329 83.3333 152.209 82.9604L154.49 82.2166C154.617 82.6062 154.74 82.9958 154.857 83.3875L152.561 84.0812ZM151.832 81.8458C151.7 81.475 151.567 81.1083 151.429 80.7416L153.677 79.8979C153.821 80.2812 153.961 80.6666 154.096 81.052L151.832 81.8458ZM151.007 79.6479C150.863 79.2854 150.715 78.925 150.561 78.5645L152.771 77.627C152.929 78.002 153.086 78.3791 153.236 78.7583L151.007 79.6479ZM150.09 77.4854C149.927 77.127 149.763 76.7729 149.596 76.4187L151.763 75.3875C151.938 75.7562 152.111 76.127 152.277 76.5L150.09 77.4854ZM149.079 75.3645C148.904 75.0145 148.723 74.6687 148.542 74.3229L150.661 73.1979C150.852 73.5583 151.04 73.9208 151.223 74.2854L149.079 75.3645ZM147.979 73.2916C147.79 72.9479 147.594 72.6083 147.396 72.2708L149.467 71.0562C149.673 71.4104 149.877 71.7645 150.075 72.1208L147.979 73.2916ZM146.792 71.2625C146.586 70.9291 146.377 70.5979 146.165 70.2708L148.182 68.9687C148.402 69.3125 148.621 69.6562 148.836 70.0041L146.792 71.2625ZM145.519 69.2916C145.298 68.9666 145.075 68.6437 144.85 68.325L146.809 66.9375C147.044 67.2708 147.277 67.6083 147.507 67.9479L145.519 69.2916ZM144.161 67.3729C143.927 67.0562 143.692 66.7458 143.452 66.4354L145.35 64.9666C145.6 65.2895 145.846 65.6166 146.09 65.9437L144.161 67.3729ZM142.723 65.5145C142.477 65.2104 142.227 64.9083 141.975 64.6083L143.811 63.0604C144.073 63.3729 144.334 63.6875 144.59 64.0062L142.723 65.5145ZM141.209 63.7187C140.95 63.425 140.688 63.1333 140.423 62.8458L142.188 61.2208C142.465 61.5208 142.738 61.825 143.009 62.1312L141.209 63.7187ZM139.617 61.9895C139.346 61.7062 139.073 61.427 138.796 61.15L140.492 59.452C140.782 59.7416 141.067 60.0333 141.35 60.327L139.617 61.9895ZM137.957 60.3291C137.673 60.0583 137.388 59.7916 137.098 59.5271L138.721 57.7583C139.021 58.0333 139.319 58.3125 139.615 58.5958L137.957 60.3291ZM136.223 58.7416C135.929 58.4833 135.634 58.227 135.334 57.975L136.879 56.1396C137.192 56.4021 137.5 56.6687 137.809 56.9396L136.223 58.7416ZM134.427 57.2291C134.121 56.9833 133.815 56.7396 133.504 56.5021L134.971 54.602C135.294 54.85 135.615 55.1041 135.934 55.3604L134.427 57.2291ZM132.567 55.7937C132.252 55.5604 131.934 55.3312 131.615 55.1062L132.998 53.1458C133.332 53.3812 133.663 53.6208 133.992 53.8625L132.567 55.7937ZM130.646 54.4375C130.321 54.2208 129.996 54.0041 129.667 53.7937L130.965 51.775C131.309 51.9958 131.648 52.2208 131.988 52.4479L130.646 54.4375ZM128.673 53.1687C128.34 52.9646 128.002 52.7625 127.665 52.5646L128.875 50.4937C129.229 50.7 129.579 50.9104 129.927 51.1229L128.673 53.1687ZM126.642 51.9833C126.3 51.7916 125.957 51.6062 125.611 51.4229L126.732 49.3C127.094 49.4916 127.452 49.6854 127.809 49.8854L126.642 51.9833ZM124.569 50.8854C124.219 50.7104 123.867 50.5396 123.513 50.3708L124.542 48.2041C124.911 48.3791 125.277 48.5583 125.644 48.7416L124.569 50.8854ZM122.446 49.8791C122.088 49.7187 121.727 49.5604 121.365 49.4083L122.3 47.1979C122.677 47.3583 123.054 47.5208 123.427 47.6896L122.446 49.8791ZM120.284 48.9646C119.919 48.8187 119.554 48.6791 119.188 48.5416L120.027 46.2937C120.411 46.4354 120.79 46.5833 121.169 46.7333L120.284 48.9646ZM118.084 48.1437C117.713 48.0146 117.34 47.8896 116.967 47.7687L117.709 45.4854C118.098 45.6125 118.486 45.7416 118.873 45.8771L118.084 48.1437ZM115.846 47.4166C115.473 47.3041 115.098 47.1958 114.721 47.0916L115.365 44.7791C115.757 44.8875 116.148 45.0021 116.538 45.1187L115.846 47.4166ZM113.588 46.7896C113.209 46.6937 112.827 46.6 112.446 46.5125L112.988 44.175C113.386 44.2666 113.784 44.3625 114.182 44.4646L113.588 46.7896ZM111.292 46.2583C110.911 46.1791 110.529 46.1021 110.146 46.0312L110.586 43.6729C110.986 43.7479 111.386 43.825 111.784 43.9083L111.292 46.2583ZM108.992 45.8291C108.607 45.7646 108.219 45.7062 107.832 45.65L108.171 43.275C108.575 43.3312 108.979 43.3937 109.384 43.4604L108.992 45.8291ZM106.663 45.4958C106.273 45.4479 105.882 45.4062 105.49 45.3666L105.727 42.9791C106.136 43.0187 106.544 43.0646 106.952 43.1125L106.663 45.4958ZM104.327 45.2646C103.94 45.2333 103.55 45.2083 103.161 45.1854L103.296 42.7896C103.702 42.8125 104.109 42.8396 104.515 42.8708L104.327 45.2646ZM101.986 45.1312C101.592 45.1166 101.198 45.1083 100.804 45.1021L100.838 42.7021C101.25 42.7083 101.661 42.7187 102.071 42.7333L101.986 45.1312ZM100 45.0958C99.6045 45.0958 99.2087 45.1 98.8149 45.1083L98.7628 42.7083C99.1753 42.7 99.5878 42.6958 100 42.6958V45.0958Z" fill="#090F21"/>
</g>
</g>
<path d="M64.8303 71.0642C65.0241 70.8413 65.1408 70.7454 65.3533 70.7788L68.497 73.4871C68.7678 73.7204 68.6762 73.8475 68.4658 74.0913L68.5324 74.1475L69.2137 73.3579L69.147 73.3017C68.9408 73.5413 68.8303 73.6496 68.5699 73.435L65.5428 70.8267C65.5574 70.8288 65.5762 70.8371 65.5908 70.8413L70.0178 72.4267L70.0783 72.3538L67.6949 68.01L70.8658 70.7413C71.1345 70.9746 71.0449 71.0996 70.8345 71.3454L70.8991 71.4017L72.0074 70.1163L71.9408 70.06C71.7303 70.3058 71.6178 70.4142 71.3491 70.1808L68.3053 67.5579C68.0595 67.3371 68.1512 67.2121 68.3574 66.9725L68.2908 66.9163L67.497 67.8371L69.4762 71.4454L65.572 70.0704L64.7637 71.0079L64.8303 71.0642Z" fill="#090F21"/>
<path d="M70.85 67.8262C71.7708 68.8887 73.3292 69.0429 74.3354 68.17C75.3417 67.2991 75.4271 65.72 74.5062 64.6575C73.5896 63.6012 72.0292 63.4741 71.0229 64.347C70.0146 65.22 69.9333 66.7679 70.85 67.8262ZM71.0333 64.4616C71.9437 63.6741 73.125 64.297 73.9437 65.2429C74.7896 66.22 75.1375 67.3512 74.325 68.0554C73.4396 68.822 72.2625 68.222 71.4125 67.2408C70.5958 66.3012 70.2646 65.1283 71.0333 64.4616Z" fill="#090F21"/>
<path d="M76.6376 66.1424L78.0334 65.2278L77.9855 65.1549C77.7376 65.3174 77.5917 65.3653 77.4355 65.1611L76.2855 63.4049L78.0146 62.2736L79.1271 63.9736C79.3001 64.2382 79.2021 64.359 78.9313 64.5361L78.9792 64.609L80.3813 63.6924L80.3334 63.6194C80.0626 63.7965 79.9188 63.834 79.7542 63.5799L77.5542 60.2194C77.3813 59.9549 77.473 59.8382 77.7438 59.6611L77.6959 59.5882L76.2938 60.5049L76.3417 60.5799C76.6105 60.4028 76.7605 60.3611 76.9334 60.6257L77.9667 62.2007L76.2376 63.3319L75.1959 61.7382C75.0376 61.4882 75.1313 61.3715 75.3959 61.1986L75.348 61.1257L73.9521 62.0382L74.0001 62.1111C74.2688 61.934 74.4146 61.8965 74.5876 62.1611L76.7792 65.5111C76.9521 65.7757 76.8605 65.8924 76.5896 66.0694L76.6376 66.1424Z" fill="#090F21"/>
<path d="M81.6784 63.0182L81.6409 62.939C81.3868 63.0619 81.1347 63.0036 81.118 62.6911L81.0534 61.5349L82.7972 60.6932L83.5493 61.3682C83.8118 61.5994 83.9076 61.8453 83.593 61.9974L83.4284 62.0765L83.4659 62.1557L85.168 61.3328L85.1305 61.2536C84.8284 61.4015 84.5763 61.3578 84.2138 61.039L80.7826 58.0036L79.7222 58.5161L79.7597 58.5953C80.0034 58.4786 80.2493 58.4328 80.4638 58.6286L80.8326 58.9599L81.0388 62.7599C81.0534 63.0224 80.8951 63.2994 80.6951 63.3953L80.7347 63.4744L81.6784 63.0182ZM80.918 59.0286L82.7243 60.6307L81.0513 61.439L80.918 59.0286Z" fill="#090F21"/>
<path d="M84.0368 56.5937C84.3181 56.5041 84.4681 56.4832 84.6306 56.6228L85.8931 60.577C86.0035 60.9166 85.8598 60.977 85.5514 61.0749L85.5785 61.1582L86.5723 60.8395L86.5452 60.7562C86.2431 60.8541 86.0931 60.8874 85.9827 60.5687L84.7681 56.7624C84.7785 56.7728 84.791 56.7895 84.8014 56.7999L87.7452 60.4666L87.8348 60.4374L88.0764 55.4874L89.3493 59.4728C89.4577 59.8124 89.3139 59.8728 89.0056 59.9707L89.0327 60.0541L90.6473 59.5395L90.6223 59.4562C90.3139 59.5541 90.1618 59.5874 90.0535 59.2478L88.8327 55.4228C88.7389 55.1062 88.8806 55.0457 89.1827 54.9499L89.1556 54.8666L87.9952 55.2374L87.7973 59.3478L85.1889 56.1332L84.0098 56.5103L84.0368 56.5937Z" fill="#090F21"/>
<path d="M90.3187 54.6761C90.6124 54.6282 90.7624 54.6303 90.9041 54.7928L91.5666 58.8886C91.6249 59.2407 91.4728 59.2803 91.1541 59.3303L91.1687 59.4178L92.1978 59.2511L92.1832 59.1636C91.8728 59.2157 91.7166 59.2261 91.6562 58.8949L91.0187 54.9511C91.027 54.9636 91.0374 54.9824 91.0457 54.9928L93.4124 59.0553L93.5062 59.0386L94.4791 54.1782L95.1478 58.3095C95.2041 58.6616 95.0541 58.7011 94.7353 58.7511L94.7478 58.8386L96.4228 58.5678L96.4082 58.4803C96.0895 58.5324 95.9353 58.5449 95.877 58.1928L95.2353 54.2261C95.1895 53.9011 95.3395 53.8616 95.652 53.8116L95.6395 53.7261L94.4353 53.9199L93.6312 57.9553L91.527 54.3907L90.3062 54.5886L90.3187 54.6761Z" fill="#090F21"/>
<path d="M96.9338 58.561L100.571 58.461L100.996 56.5193L100.909 56.5214C100.628 57.5589 100.192 58.3839 99.0421 58.4172C98.3567 58.436 98.14 58.388 98.1317 58.0776L98.0754 56.0005L98.8483 55.9776C99.6213 55.9568 99.6338 56.3818 99.6525 57.0672L99.74 57.0651L99.6775 54.838L99.59 54.8401C99.6088 55.5193 99.5713 55.8651 98.8463 55.8901L98.0713 55.913L98.0213 54.0755C98.0129 53.761 98.2879 53.713 99.2567 53.686C100.017 53.6651 100.305 53.8589 100.573 54.6193L100.661 54.6151L100.275 53.563L96.7983 53.6589L96.8004 53.7464C97.1233 53.738 97.2671 53.7797 97.2754 54.0964L97.3942 58.1651C97.3733 58.4151 97.2275 58.4651 96.9317 58.4735L96.9338 58.561Z" fill="#090F21"/>
<path d="M101.541 58.4439L103.549 58.6439C105.593 58.848 106.38 57.723 106.511 56.4105C106.726 54.2543 105.095 53.8689 104.211 53.7814L102.028 53.5626L102.02 53.6501C102.341 53.6814 102.476 53.7501 102.447 54.0564L102.049 58.0397C102.018 58.3564 101.872 58.3876 101.551 58.3564L101.541 58.4439ZM103.499 58.5501C102.955 58.496 102.753 58.423 102.784 58.1147L103.182 54.1251C103.213 53.823 103.453 53.7918 104.082 53.8564C105.186 53.9668 105.934 54.8105 105.782 56.3376C105.67 57.4626 105.178 58.7189 103.499 58.5501Z" fill="#090F21"/>
<path d="M111.334 60.2239C112.548 60.5781 113.336 59.826 113.598 58.9218L113.515 58.8989C113.292 59.6593 112.669 60.2343 111.74 59.9635C110.621 59.6385 110.226 58.4989 110.619 57.1489C111.013 55.7989 111.926 55.2948 112.79 55.5468C113.559 55.7718 113.892 56.3593 113.576 57.4448L113.653 57.4656L114.126 55.8448L114.042 55.8198C113.99 55.9948 113.882 56.0052 113.805 55.9823C113.592 55.9198 113.396 55.5552 112.778 55.3739C111.344 54.9573 110.163 55.8323 109.755 57.2323C109.361 58.5823 110.005 59.8364 111.334 60.2239Z" fill="#090F21"/>
<path d="M114.799 58.6378C114.229 59.9233 114.752 61.3983 115.97 61.9399C117.187 62.4795 118.652 61.8837 119.22 60.5983C119.789 59.3191 119.239 57.8545 118.02 57.3149C116.804 56.7733 115.366 57.3587 114.799 58.6378ZM117.922 57.3733C119.022 57.8608 118.96 59.1962 118.454 60.3399C117.929 61.5212 117.054 62.317 116.07 61.8795C114.999 61.4066 115.041 60.0837 115.566 58.8983C116.072 57.7608 116.993 56.9608 117.922 57.3733Z" fill="#090F21"/>
<path d="M120.223 64.0497L120.265 63.9809C119.994 63.8184 119.896 63.6955 120.05 63.4351L121.129 61.6434L121.798 62.0455C122.379 62.3955 122.323 62.6747 121.89 63.3955L121.965 63.4393L123.111 61.5309L123.036 61.4851C122.648 62.1309 122.429 62.3143 121.844 61.9705L121.173 61.5684L122.306 59.683L122.988 60.0914C123.586 60.4664 123.963 60.7559 123.796 61.7226L123.871 61.7684L124.117 60.6684L121.315 58.983L121.269 59.058C121.546 59.2247 121.64 59.3434 121.479 59.608L119.417 63.0393C119.258 63.3059 119.111 63.2789 118.833 63.1122L118.788 63.1872L120.223 64.0497Z" fill="#090F21"/>
<path d="M123.66 66.3552L123.71 66.2906C123.456 66.0989 123.371 65.9677 123.554 65.726L124.814 64.0552L125.437 64.526C125.979 64.9343 125.892 65.2073 125.385 65.8781L125.456 65.9302L126.798 64.1531L126.727 64.101C126.273 64.701 126.035 64.8593 125.489 64.4552L124.867 63.9864L126.192 62.2302L126.825 62.7073C127.381 63.1448 127.725 63.4698 127.458 64.4156L127.529 64.4677L127.887 63.3989L125.277 61.4302L125.225 61.501C125.483 61.6948 125.562 61.8218 125.377 62.0698L122.967 65.2656C122.779 65.5114 122.633 65.4698 122.377 65.276L122.323 65.3448L123.66 66.3552Z" fill="#090F21"/>
<path d="M125.612 67.8504L128.258 70.3504L129.931 69.2775L129.869 69.2171C128.935 69.7525 128.044 70.0296 127.208 69.2379C126.71 68.7671 126.589 68.5796 126.802 68.3546L128.231 66.8442L128.794 67.3754C129.356 67.9067 129.064 68.215 128.594 68.715L128.656 68.7733L130.187 67.1567L130.123 67.0962C129.656 67.59 129.385 67.8067 128.854 67.3129L128.291 66.7817L129.554 65.4462C129.771 65.2171 130 65.3775 130.704 66.0421C131.256 66.565 131.323 66.9067 130.975 67.6337L131.039 67.6942L131.51 66.6775L128.983 64.2858L128.923 64.3504C129.158 64.5712 129.229 64.7025 129.012 64.9337L126.219 67.8942C126.029 68.0567 125.887 67.99 125.673 67.7858L125.612 67.8504Z" fill="#090F21"/>
<path d="M128.949 71.0479L131.282 73.8417L133.07 72.9708L133.013 72.9042C132.026 73.3271 131.107 73.4979 130.37 72.6146C129.93 72.0875 129.834 71.8875 130.072 71.6896L131.667 70.3563L132.163 70.95C132.659 71.5438 132.334 71.8167 131.807 72.2563L131.863 72.3229L133.572 70.8958L133.515 70.8292C132.995 71.2646 132.701 71.4479 132.23 70.8938L131.734 70.3L133.145 69.1229C133.386 68.9208 133.595 69.1063 134.215 69.85C134.703 70.4333 134.728 70.7813 134.299 71.4625L134.355 71.5292L134.942 70.575L132.713 67.9042L132.647 67.9604C132.853 68.2083 132.907 68.3479 132.665 68.55L129.545 71.1646C129.336 71.3042 129.205 71.2208 129.015 70.9917L128.949 71.0479Z" fill="#090F21"/>
<mask id="mask6_92_7281" style="mask-type:luminance" maskUnits="userSpaceOnUse" x="79" y="71" width="26" height="58">
<path d="M79.2417 71.8083H104.069V128.192H79.2417V71.8083Z" fill="white"/>
</mask>
<g mask="url(#mask6_92_7281)">
<path d="M101.56 124.454C101.408 125.448 101.067 126.404 100.56 127.273C100.558 127.277 100.554 127.283 100.552 127.288C100.185 127.915 99.5188 128.275 98.7334 128.175C88.4667 126.865 79.2417 114.294 79.2417 99.5813C79.2417 83.9896 87.8729 72.5667 100.592 71.8209C101.592 71.7625 102.579 71.9229 103.546 72.1209C104.019 72.2167 104.208 72.7313 103.904 73.075C97.3313 80.4959 93.5688 87.0709 94.2521 96.2063C94.4979 99.4771 95.6646 103.542 97.1167 107.413C98.4625 111.056 102.621 117.454 101.56 124.454Z" fill="#2563EB"/>
</g>
<mask id="mask7_92_7281" style="mask-type:luminance" maskUnits="userSpaceOnUse" x="97" y="73" width="24" height="55">
<path d="M97.6001 73.0667H120.842V128H97.6001V73.0667Z" fill="white"/>
</mask>
<g mask="url(#mask7_92_7281)">
<path d="M120.754 100.056C120.754 113.435 114.11 124.644 105.183 127.556C104.033 127.931 102.923 126.898 103.192 125.719C103.658 123.679 103.954 121.588 103.881 119.479C103.496 108.475 98.4334 104.992 97.8522 97.7604C97.3105 91.0292 98.0855 84.7375 103.431 76.325C104.013 75.4104 104.694 74.5625 105.465 73.8021C105.819 73.2583 106.577 73.0729 107.19 73.3688C115.088 77.1938 120.754 87.7042 120.754 100.056Z" fill="#2563EB"/>
</g>
<path d="M49.1387 103.775H52.6803L53.1449 101.895H53.0595C52.7574 102.898 52.3137 103.689 51.1949 103.689C50.5262 103.689 50.3178 103.637 50.3178 103.337V101.314H51.0699C51.822 101.314 51.822 101.727 51.822 102.393H51.9074V100.229H51.822C51.822 100.889 51.7762 101.223 51.0699 101.229H50.3178V99.4434C50.3178 99.135 50.5845 99.0954 51.5283 99.0954C52.2678 99.0954 52.5428 99.2913 52.7845 100.037H52.8699L52.522 99.0038H49.1387V99.0892C49.4533 99.0892 49.5908 99.135 49.5908 99.4434L49.597 103.402C49.572 103.643 49.4262 103.689 49.1387 103.689V103.775Z" fill="#090F21"/>
<path d="M53.6411 103.775H53.7265C53.7265 103.61 53.8369 103.545 54.0265 103.545C54.3411 103.545 54.5578 103.854 55.2703 103.854C56.3765 103.854 56.7244 103.304 56.7244 102.635C56.7244 101.235 54.3682 101.027 54.3682 99.7434C54.3682 99.3642 54.5765 99.083 55.1015 99.083C55.8265 99.083 56.3765 99.6726 56.3765 100.548H56.4619V99.0038H56.3765C56.3765 99.1997 56.3244 99.2663 56.1536 99.2663C55.8849 99.2663 55.6765 98.933 55.0099 98.933C54.3682 98.933 53.6474 99.2976 53.6474 100.058C53.6474 101.32 56.0682 101.818 56.0682 102.904C56.0682 103.487 55.6494 103.689 55.1599 103.689C54.3536 103.689 53.7265 103.12 53.7265 101.812H53.6411V103.775Z" fill="#090F21"/>
<path d="M57.2016 100.241C57.3641 99.3642 57.8683 99.0892 58.5683 99.0892H59.0454V103.337C59.0454 103.637 58.9079 103.689 58.5954 103.689V103.775H60.2245V103.689C59.91 103.689 59.7662 103.637 59.7662 103.337V99.0892H60.237C60.9433 99.0892 61.4475 99.3642 61.612 100.241H61.6975L61.4808 99.0038H57.3308L57.1162 100.241H57.2016Z" fill="#090F21"/>
<path d="M62.0229 103.775H63.9875C65.9834 103.775 66.6375 102.61 66.6375 101.327C66.6375 99.2205 65.0209 99.0038 64.1563 99.0038H62.0229V99.0892C62.3375 99.0892 62.475 99.1413 62.475 99.4434V103.337C62.475 103.643 62.3375 103.689 62.0229 103.689V103.775ZM63.9271 103.689C63.3979 103.689 63.1938 103.637 63.1938 103.337V99.435C63.1938 99.1413 63.4229 99.0892 64.0396 99.0892C65.1188 99.0892 65.9229 99.835 65.9229 101.327C65.9229 102.427 65.5709 103.689 63.9271 103.689Z" fill="#090F21"/>
<path d="M134.491 103.775H137.227L137.85 102.362H137.744C137.744 102.362 137.331 103.252 136.469 103.252H135.173C136.154 102.283 137.541 101.164 137.541 100.116C137.541 99.5205 137.11 98.9246 135.977 98.9246C135.016 98.9246 134.61 99.4809 134.61 99.4809L134.839 100.679H134.925C134.8 99.9455 134.996 99.0892 135.873 99.0892C136.396 99.0892 136.821 99.4163 136.821 100.025C136.821 101.4 135.283 102.937 134.491 103.775Z" fill="#090F21"/>
<path d="M138.275 101.4C138.275 102.76 139.014 103.873 140.081 103.873C141.139 103.873 141.879 102.76 141.879 101.4C141.879 100.031 141.139 98.9246 140.081 98.9246C139.014 98.9246 138.275 100.031 138.275 101.4ZM140.081 99.01C140.898 99.01 141.185 100.162 141.185 101.4C141.185 102.635 140.898 103.741 140.081 103.741C139.256 103.741 138.969 102.635 138.969 101.4C138.969 100.162 139.256 99.01 140.081 99.01Z" fill="#090F21"/>
<path d="M142.337 103.775H145.073L145.696 102.362H145.589C145.589 102.362 145.177 103.252 144.314 103.252H143.019C144 102.283 145.387 101.164 145.387 100.116C145.387 99.5205 144.956 98.9246 143.823 98.9246C142.862 98.9246 142.456 99.4809 142.456 99.4809L142.685 100.679H142.771C142.646 99.9455 142.842 99.0892 143.719 99.0892C144.242 99.0892 144.667 99.4163 144.667 100.025C144.667 101.4 143.129 102.937 142.337 103.775Z" fill="#090F21"/>
<path d="M146.054 102.125H148.077V103.337C148.077 103.637 147.927 103.689 147.619 103.689V103.775H149.19V103.689C148.881 103.689 148.731 103.637 148.731 103.337V102.125H149.144L149.15 102.041H148.731V100.548H148.077V102.041H146.258C146.258 102.041 149.269 99.0038 149.288 99.0038H148.338L146.054 102.041V102.125Z" fill="#090F21"/>
<path d="M73.2258 142.028C72.4925 141.471 71.9717 140.807 71.6675 140.036C71.3675 139.263 71.2842 138.467 71.4175 137.644C71.5508 136.817 71.8883 136.044 72.4342 135.328C72.9612 134.64 73.6112 134.092 74.3842 133.686C75.155 133.282 75.9758 133.101 76.8425 133.144C77.7133 133.19 78.5529 133.517 79.3592 134.128C79.6529 134.351 79.93 134.636 80.1925 134.986C80.4592 135.336 80.6696 135.703 80.8258 136.086L80.8342 136.094L81.1425 135.603L81.9758 136.236L80.0425 138.769L79.3342 138.236C80.055 136.886 79.9133 135.815 78.9092 135.019C78.4258 134.653 77.9029 134.484 77.3425 134.511C76.7862 134.54 76.2467 134.728 75.7258 135.078C75.2029 135.424 74.7342 135.867 74.3175 136.411C73.8446 137.034 73.5133 137.657 73.3258 138.278C73.1362 138.899 73.1092 139.474 73.2425 140.003C73.3758 140.536 73.68 140.982 74.1592 141.344C74.6258 141.699 75.1696 141.924 75.7925 142.019C76.4196 142.119 77.0446 142.08 77.6675 141.903L77.8258 142.778C76.8467 143.078 75.9758 143.132 75.2092 142.944C74.4467 142.761 73.7862 142.455 73.2258 142.028Z" fill="#090F21"/>
<path d="M84.2208 148.014C83.1979 147.631 82.4375 147.085 81.9375 146.381C81.4416 145.681 81.1729 144.923 81.1291 144.106C81.0833 143.285 81.2125 142.471 81.5125 141.664C81.7958 140.904 82.2395 140.231 82.8458 139.648C83.4562 139.06 84.1895 138.66 85.0458 138.448C85.9 138.231 86.8062 138.302 87.7625 138.656C88.7395 139.023 89.475 139.564 89.9708 140.281C90.4645 140.998 90.7395 141.777 90.7958 142.614C90.8562 143.448 90.7458 144.246 90.4625 145.006C90.1833 145.752 89.7395 146.418 89.1291 147.014C88.5166 147.608 87.7833 148.01 86.9291 148.223C86.0791 148.439 85.175 148.368 84.2208 148.014ZM84.6958 147.131C85.2562 147.341 85.775 147.335 86.2541 147.114C86.7312 146.891 87.1458 146.539 87.4958 146.056C87.85 145.579 88.1375 145.048 88.3541 144.464C88.8083 143.254 88.9562 142.212 88.7958 141.339C88.6395 140.468 88.1458 139.877 87.3125 139.564C86.7458 139.354 86.2145 139.362 85.7208 139.589C85.225 139.812 84.8 140.168 84.4458 140.656C84.0895 141.146 83.8 141.681 83.5791 142.264C83.3625 142.86 83.225 143.489 83.1708 144.156C83.1145 144.818 83.2062 145.423 83.4458 145.973C83.6833 146.523 84.1 146.908 84.6958 147.131Z" fill="#090F21"/>
<path d="M92.9554 149.289C93.1991 149.301 93.3845 149.287 93.5137 149.247C93.647 149.203 93.7554 149.105 93.8387 148.955C93.9262 148.801 93.9845 148.545 94.0137 148.189L94.4554 142.972C94.4991 142.468 94.5512 142.062 94.6137 141.755L93.597 141.714L93.6804 140.664L100.48 141.239L100.347 143.889L99.447 143.805C99.5012 143.128 99.3804 142.651 99.0804 142.372C98.7845 142.089 98.4075 141.937 97.947 141.914L97.4554 141.889C97.2325 141.885 97.0575 141.901 96.9304 141.939C96.8012 141.978 96.6929 142.08 96.6054 142.247C96.522 142.41 96.4658 142.655 96.4387 142.989L96.2387 145.364L97.647 145.48C97.647 145.36 97.6595 144.968 97.6887 144.305L98.7304 144.397L98.4554 147.697L97.5637 147.622C97.5908 147.255 97.5554 146.98 97.4554 146.797C97.3595 146.61 97.222 146.487 97.0387 146.43C96.8554 146.37 96.6179 146.33 96.3304 146.314L96.1637 146.305L96.0054 148.205C95.9595 148.718 95.9054 149.122 95.8387 149.422C96.1387 149.422 96.547 149.443 97.0637 149.48L96.972 150.53L92.8804 150.189L92.9554 149.289Z" fill="#090F21"/>
<path d="M103.336 149.685C103.573 149.641 103.752 149.585 103.869 149.519C103.99 149.448 104.073 149.325 104.119 149.152C104.169 148.975 104.165 148.71 104.111 148.36L103.302 143.194C103.223 142.694 103.18 142.285 103.169 141.969L102.161 142.169L102.002 141.135L108.744 140.085L109.236 142.685L108.344 142.827C108.238 142.156 108.005 141.719 107.644 141.519C107.288 141.314 106.888 141.252 106.444 141.335L105.952 141.435C105.74 141.481 105.573 141.535 105.452 141.602C105.336 141.669 105.257 141.794 105.219 141.977C105.18 142.16 105.186 142.416 105.236 142.744L105.602 145.094L106.994 144.869C106.965 144.758 106.888 144.375 106.761 143.719L107.794 143.56L108.302 146.835L107.419 146.977C107.363 146.616 107.263 146.358 107.119 146.202C106.98 146.041 106.815 145.952 106.627 145.935C106.438 145.919 106.202 145.939 105.919 145.994L105.752 146.027L106.044 147.91C106.127 148.416 106.171 148.825 106.177 149.135C106.465 149.064 106.865 148.989 107.377 148.91L107.536 149.944L103.477 150.577L103.336 149.685Z" fill="#090F21"/>
<path d="M113.561 147.635C113.782 147.525 113.94 147.422 114.036 147.327C114.136 147.227 114.186 147.089 114.186 146.91C114.19 146.733 114.122 146.481 113.978 146.152L111.928 141.343C111.728 140.877 111.586 140.493 111.503 140.193L110.569 140.635L110.153 139.668L116.436 136.985L117.553 139.393L116.719 139.743C116.453 139.122 116.122 138.756 115.728 138.643C115.332 138.533 114.928 138.575 114.511 138.768L114.069 138.977C113.863 139.072 113.713 139.168 113.619 139.268C113.53 139.364 113.486 139.506 113.486 139.693C113.49 139.877 113.561 140.122 113.694 140.427L114.494 142.31L115.961 141.677C115.894 141.543 115.722 141.191 115.444 140.618L116.411 140.202L117.719 143.252L116.894 143.61C116.749 143.272 116.588 143.047 116.411 142.935C116.238 142.818 116.057 142.775 115.869 142.802C115.686 142.831 115.457 142.906 115.186 143.027L114.869 143.177L115.744 145.243C115.938 145.693 116.078 146.066 116.161 146.36L117.853 145.643C118.28 145.46 118.58 145.16 118.753 144.743C118.924 144.327 118.878 143.806 118.611 143.177L119.428 142.827L120.544 145.627L113.911 148.46L113.561 147.635Z" fill="#090F21"/>
<path d="M123.63 142.769C123.807 142.609 123.932 142.469 124.005 142.352C124.076 142.232 124.091 142.084 124.047 141.911C124.001 141.734 123.872 141.507 123.655 141.227L120.439 137.094C120.128 136.7 119.895 136.367 119.739 136.094L118.955 136.761L118.305 135.936L123.689 131.744L125.389 133.777L124.68 134.336C124.264 133.802 123.849 133.534 123.439 133.527C123.022 133.517 122.639 133.659 122.289 133.952L121.914 134.269C121.743 134.415 121.622 134.544 121.555 134.661C121.489 134.777 121.48 134.925 121.53 135.102C121.58 135.282 121.709 135.5 121.914 135.761L123.172 137.377L124.439 136.394C124.332 136.277 124.074 135.982 123.664 135.502L124.489 134.852L126.522 137.469L125.814 138.027C125.591 137.74 125.382 137.561 125.189 137.494C124.993 137.427 124.809 137.432 124.639 137.502C124.466 137.575 124.264 137.709 124.03 137.902L123.755 138.119L125.13 139.894C125.43 140.284 125.659 140.609 125.822 140.869L127.264 139.744C127.63 139.461 127.843 139.098 127.905 138.652C127.972 138.209 127.793 137.717 127.372 137.177L128.072 136.627L129.864 139.044L124.18 143.477L123.63 142.769Z" fill="#090F21"/>
</svg>
