<svg width="40" height="25" viewBox="0 0 40 25" fill="none" xmlns="http://www.w3.org/2000/svg">
<path d="M6.92318 5.34058e-05C8.14867 5.34058e-05 9.08821 0.462795 9.7418 1.38828C10.3954 2.31522 10.4362 3.26904 9.86435 4.24974L7.3521 8.71736L12.2541 8.71736C13.6021 8.71736 14.7557 9.14451 15.7148 9.99881C16.6756 10.8517 17.156 11.8774 17.156 13.076L17.156 19.614C17.156 20.8126 16.6756 21.8384 15.7148 22.6912C14.7557 23.5455 13.6021 23.9727 12.2541 23.9727L4.90112 23.9727C3.55308 23.9727 2.39867 23.5455 1.43788 22.6912C0.478733 21.8384 -0.000843048 20.8126 -0.000843048 19.614L-0.000843048 9.75255C-0.000843048 9.42565 0.0302048 9.0893 0.0922928 8.74352C0.152752 8.39918 0.285107 8.08173 0.489353 7.79115L3.982 1.63455C4.26795 1.12604 4.67645 0.726498 5.20749 0.435921C5.73854 0.145344 6.31043 5.34058e-05 6.92318 5.34058e-05ZM28.982 5.34058e-05C30.2075 5.34058e-05 31.147 0.462795 31.8006 1.38828C32.4542 2.31522 32.4951 3.26904 31.9232 4.24974L29.4109 8.71736L34.3129 8.71736C35.6609 8.71736 36.8145 9.14451 37.7737 9.99881C38.7345 10.8517 39.2148 11.8774 39.2148 13.076L39.2148 19.614C39.2148 20.8126 38.7345 21.8384 37.7737 22.6912C36.8145 23.5455 35.6609 23.9727 34.3129 23.9727L26.9599 23.9727C25.6119 23.9727 24.4575 23.5455 23.4967 22.6912C22.5376 21.8384 22.058 20.8126 22.058 19.614L22.058 9.75255C22.058 9.42565 22.0882 9.0893 22.1487 8.74352C22.2108 8.39918 22.3439 8.08173 22.5482 7.79115L26.0408 1.63455C26.3268 1.12604 26.7353 0.726498 27.2663 0.435921C27.7974 0.145344 28.3693 5.34058e-05 28.982 5.34058e-05Z" fill="white"/>
<path d="M7.70834 1.0274C8.93382 1.0274 9.87337 1.49014 10.527 2.41563C11.1806 3.34257 11.2214 4.29639 10.6495 5.27709L8.13725 9.74471L13.0392 9.74471C14.3873 9.74471 15.5408 10.1719 16.5 11.0262C17.4608 11.879 17.9412 12.9047 17.9412 14.1034L17.9412 20.6413C17.9412 21.84 17.4608 22.8657 16.5 23.7186C15.5408 24.5729 14.3873 25 13.0392 25L5.68628 25C4.33823 25 3.18382 24.5729 2.22304 23.7186C1.26389 22.8657 0.784313 21.84 0.784313 20.6413L0.784313 10.7799C0.784313 10.453 0.815361 10.1166 0.877449 9.77086C0.937908 9.42653 1.07026 9.10907 1.27451 8.81849L4.76715 2.66189C5.0531 2.15338 5.4616 1.75384 5.99265 1.46326C6.52369 1.17269 7.09559 1.0274 7.70834 1.0274ZM29.7672 1.0274C30.9926 1.0274 31.9322 1.49014 32.5858 2.41563C33.2394 3.34257 33.2802 4.29639 32.7083 5.27709L30.1961 9.74471L35.098 9.74471C36.4461 9.74471 37.5997 10.1719 38.5588 11.0262C39.5196 11.879 40 12.9047 40 14.1034L40 20.6413C40 21.84 39.5196 22.8657 38.5588 23.7186C37.5997 24.5729 36.4461 25 35.098 25L27.7451 25C26.3971 25 25.2426 24.5729 24.2819 23.7186C23.3227 22.8657 22.8431 21.84 22.8431 20.6413L22.8431 10.7799C22.8431 10.453 22.8734 10.1166 22.9338 9.77086C22.9959 9.42653 23.1291 9.10907 23.3333 8.81849L26.826 2.66189C27.1119 2.15338 27.5204 1.75384 28.0515 1.46326C28.5825 1.17269 29.1544 1.0274 29.7672 1.0274Z" fill="#93C5FD"/>
</svg>
